TITLE ""
FILE "Disc2Track24.mp3" MP3
  TRACK 01 AUDIO
    TITLE "Disc2Track24_01"
    INDEX 01 00:00:00
  TRACK 02 AUDIO
    TITLE "Disc2Track24_02"
    INDEX 01 00:00:71
  TRACK 03 AUDIO
    TITLE "Disc2Track24_03"
    INDEX 01 00:05:06
  TRACK 04 AUDIO
    TITLE "Disc2Track24_04"
    INDEX 01 00:06:13
  TRACK 05 AUDIO
    TITLE "Disc2Track24_05"
    INDEX 01 00:09:68
  TRACK 06 AUDIO
    TITLE "Disc2Track24_06"
    INDEX 01 00:10:20
  TRACK 07 AUDIO
    TITLE "Disc2Track24_07"
    INDEX 01 00:11:43
  TRACK 08 AUDIO
    TITLE "Disc2Track24_08"
    INDEX 01 00:13:62
  TRACK 09 AUDIO
    TITLE "Disc2Track24_09"
    INDEX 01 00:15:08
  TRACK 10 AUDIO
    TITLE "Disc2Track24_10"
    INDEX 01 00:18:75
  TRACK 11 AUDIO
    TITLE "Disc2Track24_11"
    INDEX 01 00:19:31
  TRACK 12 AUDIO
    TITLE "Disc2Track24_12"
    INDEX 01 00:20:46
  TRACK 13 AUDIO
    TITLE "Disc2Track24_13"
    INDEX 01 00:21:59
  TRACK 14 AUDIO
    TITLE "Disc2Track24_14"
    INDEX 01 00:22:75
  TRACK 15 AUDIO
    TITLE "Disc2Track24_15"
    INDEX 01 00:26:39
  TRACK 16 AUDIO
    TITLE "Disc2Track24_16"
    INDEX 01 00:26:68
  TRACK 17 AUDIO
    TITLE "Disc2Track24_17"
    INDEX 01 00:28:01
  TRACK 18 AUDIO
    TITLE "Disc2Track24_18"
    INDEX 01 00:30:51
  TRACK 19 AUDIO
    TITLE "Disc2Track24_19"
    INDEX 01 00:31:56
  TRACK 20 AUDIO
    TITLE "Disc2Track24_20"
    INDEX 01 00:35:24
  TRACK 21 AUDIO
    TITLE "Disc2Track24_21"
    INDEX 01 00:35:56
  TRACK 22 AUDIO
    TITLE "Disc2Track24_22"
    INDEX 01 00:36:71
  TRACK 23 AUDIO
    TITLE "Disc2Track24_23"
    INDEX 01 00:38:68
  TRACK 24 AUDIO
    TITLE "Disc2Track24_24"
    INDEX 01 00:40:06
  TRACK 25 AUDIO
    TITLE "Disc2Track24_25"
    INDEX 01 00:43:28
  TRACK 26 AUDIO
    TITLE "Disc2Track24_26"
    INDEX 01 00:43:59
  TRACK 27 AUDIO
    TITLE "Disc2Track24_27"
    INDEX 01 00:45:21
  TRACK 28 AUDIO
    TITLE "Disc2Track24_28"
    INDEX 01 00:47:20
  TRACK 29 AUDIO
    TITLE "Disc2Track24_29"
    INDEX 01 00:48:54
  TRACK 30 AUDIO
    TITLE "Disc2Track24_30"
    INDEX 01 00:51:59
  TRACK 31 AUDIO
    TITLE "Disc2Track24_31"
    INDEX 01 00:52:15
  TRACK 32 AUDIO
    TITLE "Disc2Track24_32"
    INDEX 01 00:54:04
  TRACK 33 AUDIO
    TITLE "Disc2Track24_33"
    INDEX 01 00:58:10
  TRACK 34 AUDIO
    TITLE "Disc2Track24_34"
    INDEX 01 00:59:74
  TRACK 35 AUDIO
    TITLE "Disc2Track24_35"
    INDEX 01 01:03:60
  TRACK 36 AUDIO
    TITLE "Disc2Track24_36"
    INDEX 01 01:04:16
  TRACK 37 AUDIO
    TITLE "Disc2Track24_37"
    INDEX 01 01:05:23
  TRACK 38 AUDIO
    TITLE "Disc2Track24_38"
    INDEX 01 01:09:10
  TRACK 39 AUDIO
    TITLE "Disc2Track24_39"
    INDEX 01 01:10:17
  TRACK 40 AUDIO
    TITLE "Disc2Track24_40"
    INDEX 01 01:14:36
